{"glyphs":{"0":{"ha":903,"x_min":56,"x_max":847,"o":"m 162 106 q 109 169 162 106 q 56 500 56 232 q 162 894 56 768 q 451 1021 268 1021 q 741 894 635 1021 q 847 500 847 768 q 741 106 847 232 q 451 -21 635 -21 q 162 106 268 -21 m 261 806 q 228 761 261 806 q 194 500 194 717 q 261 194 194 283 q 451 104 328 104 q 642 194 575 104 q 708 500 708 283 q 642 806 708 717 q 451 896 575 896 q 261 806 328 896 z "},"1":{"ha":514,"x_min":7,"x_max":403,"o":"m 7 736 l 7 764 l 182 1000 l 403 1000 l 403 0 l 264 0 l 264 865 q 254 875 264 875 q 233 861 244 875 l 142 736 l 7 736 z "},"2":{"ha":792,"x_min":42,"x_max":736,"o":"m 56 0 q 119 234 56 150 q 368 438 183 318 q 449 492 419 471 q 516 550 478 514 q 572 627 554 586 q 590 715 590 668 q 535 853 590 803 q 392 903 481 903 q 242 853 297 903 q 181 715 186 804 l 42 715 q 140 938 47 854 q 392 1021 232 1021 q 638 936 547 1021 q 729 722 729 851 q 674 528 729 606 q 479 361 618 451 q 406 315 456 346 q 335 269 356 283 q 285 229 315 254 q 240 180 254 204 q 217 125 225 156 l 736 125 l 736 0 l 56 0 z "},"3":{"ha":806,"x_min":49,"x_max":743,"o":"m 49 292 l 188 292 q 396 97 199 97 q 551 148 497 97 q 604 285 604 199 q 375 451 604 451 l 306 451 l 306 569 l 375 569 q 534 613 478 569 q 590 736 590 657 q 540 859 590 815 q 399 903 490 903 q 258 859 310 903 q 201 736 207 815 l 63 736 q 158 942 68 863 q 399 1021 249 1021 q 641 945 553 1021 q 729 742 729 869 q 589 532 729 589 q 576 515 576 526 q 590 500 576 506 q 703 412 663 469 q 743 275 743 354 q 651 61 743 143 q 396 -21 558 -21 q 145 62 236 -21 q 49 292 54 144 z "},"4":{"ha":778,"x_min":28,"x_max":764,"o":"m 28 236 l 28 347 l 375 1000 l 625 1000 l 625 361 l 764 361 l 764 236 l 625 236 l 625 0 l 486 0 l 486 236 l 28 236 m 182 361 l 486 361 l 486 879 q 475 889 486 889 q 456 875 464 889 l 182 361 z "},"5":{"ha":785,"x_min":14,"x_max":736,"o":"m 14 306 l 153 306 q 217 153 158 210 q 378 97 275 97 q 539 159 481 97 q 597 326 597 221 q 543 475 597 422 q 403 528 489 528 q 229 438 293 528 l 97 438 l 146 1000 l 722 1000 l 722 875 l 274 875 l 249 611 q 261 593 246 593 q 293 607 271 593 q 431 646 356 646 q 649 563 561 646 q 736 333 736 479 q 640 77 736 175 q 378 -21 543 -21 q 117 70 215 -21 q 14 306 19 161 z "},"6":{"ha":833,"x_min":56,"x_max":785,"o":"m 56 451 q 168 879 56 738 q 472 1021 281 1021 q 700 935 621 1021 q 785 736 779 850 l 646 736 q 596 857 640 811 q 458 903 551 903 q 364 885 407 903 q 283 826 321 867 q 221 713 244 786 q 194 540 197 640 q 207 528 194 528 q 229 543 215 528 q 458 639 310 639 q 691 551 597 639 q 785 319 785 463 q 688 75 785 171 q 431 -21 590 -21 q 158 101 260 -21 q 56 451 56 222 m 215 313 q 276 158 215 219 q 431 97 336 97 q 587 158 528 97 q 646 313 646 218 q 588 464 646 407 q 431 521 529 521 q 274 464 332 521 q 215 313 215 407 z "},"7":{"ha":729,"x_min":7,"x_max":715,"o":"m 7 875 l 7 1000 l 715 1000 l 715 889 l 251 0 l 110 0 l 110 28 l 558 875 l 7 875 z "},"8":{"ha":833,"x_min":63,"x_max":771,"o":"m 63 271 q 194 497 63 424 q 214 518 214 508 q 201 535 214 528 q 76 743 76 601 q 174 945 76 869 q 417 1021 271 1021 q 660 945 563 1021 q 757 743 757 869 q 632 535 757 601 q 619 518 619 528 q 639 497 619 508 q 771 271 771 424 q 673 58 771 138 q 417 -21 575 -21 q 160 58 258 -21 q 63 271 63 138 m 215 736 q 269 619 215 663 q 417 576 324 576 q 564 619 510 576 q 618 736 618 663 q 565 858 618 814 q 417 903 511 903 q 269 858 322 903 q 215 736 215 814 m 260 410 q 231 385 260 410 q 201 278 201 361 q 260 146 201 194 q 417 97 318 97 q 574 146 515 97 q 632 278 632 194 q 574 410 632 361 q 417 458 515 458 q 260 410 318 458 z "},"9":{"ha":833,"x_min":49,"x_max":778,"o":"m 49 681 q 146 925 49 829 q 403 1021 243 1021 q 676 899 575 1021 q 778 549 778 778 q 389 -21 778 -21 q 153 56 240 -21 q 56 250 67 133 l 201 250 q 258 137 213 176 q 396 97 303 97 q 569 183 504 97 q 639 449 633 268 q 625 469 639 469 q 601 454 614 469 q 375 361 519 361 q 142 449 236 361 q 49 681 49 538 m 247 842 q 217 812 247 842 q 188 688 188 782 q 246 536 188 593 q 403 479 304 479 q 560 536 501 479 q 618 688 618 593 q 559 842 618 782 q 403 903 500 903 q 247 842 306 903 z "},"A":{"ha":889,"x_min":35,"x_max":854,"o":"m 35 0 l 35 28 l 335 1000 l 554 1000 l 854 28 l 854 0 l 713 0 l 621 306 l 268 306 l 176 0 l 35 0 m 306 431 l 583 431 l 454 863 q 444 868 453 868 q 435 863 436 868 l 306 431 z "},"B":{"ha":882,"x_min":111,"x_max":819,"o":"m 111 0 l 111 1000 l 500 1000 q 728 928 643 1000 q 813 729 813 857 q 690 526 813 596 q 676 508 676 519 q 688 494 676 499 q 819 278 819 442 q 734 72 819 144 q 500 0 649 0 l 111 0 m 250 569 l 486 569 q 674 722 674 569 q 486 875 674 875 l 250 875 l 250 569 m 250 125 l 486 125 q 632 162 583 125 q 681 285 681 199 q 632 408 681 371 q 486 444 583 444 l 250 444 l 250 125 z "},"C":{"ha":1076,"x_min":49,"x_max":1028,"o":"m 189 122 q 119 194 189 122 q 49 500 49 265 q 189 878 49 735 q 563 1021 329 1021 q 888 903 774 1021 q 1007 611 1001 786 l 868 611 q 556 896 846 896 q 288 787 389 896 q 188 500 188 678 q 288 213 188 322 q 556 104 389 104 q 793 185 708 104 q 889 410 878 265 l 1028 410 q 900 101 1022 224 q 563 -21 778 -21 q 189 122 329 -21 z "},"D":{"ha":938,"x_min":111,"x_max":875,"o":"m 111 0 l 111 1000 l 417 1000 q 755 878 635 1000 q 875 500 875 757 q 755 122 875 243 q 417 0 635 0 l 111 0 m 250 125 l 417 125 q 656 210 576 125 q 736 500 736 296 q 656 790 736 704 q 417 875 576 875 l 250 875 l 250 125 z "},"E":{"ha":813,"x_min":111,"x_max":757,"o":"m 111 0 l 111 1000 l 750 1000 l 750 875 l 250 875 l 250 583 l 701 583 l 701 458 l 250 458 l 250 125 l 757 125 l 757 0 l 111 0 z "},"F":{"ha":771,"x_min":111,"x_max":736,"o":"m 111 0 l 111 1000 l 736 1000 l 736 875 l 250 875 l 250 583 l 681 583 l 681 458 l 250 458 l 250 0 l 111 0 z "},"G":{"ha":1056,"x_min":49,"x_max":1007,"o":"m 49 500 q 189 878 49 735 q 563 1021 329 1021 q 756 987 671 1021 q 894 896 842 953 q 976 770 947 839 q 1007 625 1004 701 l 868 625 q 781 822 857 749 q 556 896 704 896 q 288 787 389 896 q 188 500 188 678 q 289 212 188 319 q 569 104 390 104 q 778 167 710 104 q 846 333 846 229 l 479 333 l 479 458 l 985 458 l 985 360 q 873 81 985 182 q 563 -21 761 -21 q 187 122 325 -21 q 49 500 49 264 z "},"H":{"ha":944,"x_min":111,"x_max":833,"o":"m 111 0 l 111 1000 l 250 1000 l 250 576 l 694 576 l 694 1000 l 833 1000 l 833 0 l 694 0 l 694 451 l 250 451 l 250 0 l 111 0 z "},"I":{"ha":361,"x_min":111,"x_max":250,"o":"m 111 1000 l 250 1000 l 250 0 l 111 0 l 111 1000 z "},"J":{"ha":729,"x_min":21,"x_max":618,"o":"m 618 1000 l 618 314 q 540 67 618 154 q 299 -21 461 -21 q 94 42 167 -21 q 21 229 21 106 l 160 229 q 194 133 160 163 q 299 104 229 104 q 479 317 479 104 l 479 1000 l 618 1000 z "},"K":{"ha":947,"x_min":111,"x_max":919,"o":"m 111 0 l 111 1000 l 250 1000 l 250 542 l 750 1000 l 919 1000 l 919 972 l 518 610 l 910 28 l 910 0 l 763 0 l 417 519 l 250 368 l 250 0 l 111 0 z "},"L":{"ha":736,"x_min":111,"x_max":715,"o":"m 111 0 l 111 1000 l 250 1000 l 250 125 l 715 125 l 715 0 l 111 0 z "},"M":{"ha":1319,"x_min":111,"x_max":1208,"o":"m 111 0 l 111 1000 l 365 1000 l 649 126 q 660 118 651 118 q 671 126 668 118 l 954 1000 l 1208 1000 l 1208 0 l 1069 0 l 1069 840 q 1060 850 1069 850 q 1047 840 1050 850 l 775 0 l 544 0 l 272 840 q 260 850 269 850 q 250 840 250 850 l 250 0 l 111 0 z "},"N":{"ha":958,"x_min":111,"x_max":847,"o":"m 111 0 l 111 1000 l 367 1000 l 685 140 q 699 132 688 132 q 708 143 708 132 l 708 1000 l 847 1000 l 847 0 l 592 0 l 274 860 q 260 868 271 868 q 250 857 250 868 l 250 0 l 111 0 z "},"O":{"ha":1139,"x_min":49,"x_max":1090,"o":"m 194 877 q 266 949 194 877 q 569 1021 339 1021 q 945 877 800 1021 q 1090 500 1090 733 q 945 123 1090 267 q 569 -21 800 -21 q 194 123 339 -21 q 49 500 49 267 q 194 877 49 733 m 569 896 q 292 790 396 896 q 188 500 188 685 q 292 210 188 315 q 569 104 396 104 q 844 210 736 104 q 951 500 951 317 q 844 790 951 683 q 569 896 736 896 z "},"P":{"ha":847,"x_min":111,"x_max":819,"o":"m 111 0 l 111 1000 l 507 1000 q 735 924 650 1000 q 819 715 819 849 q 735 506 819 582 q 507 431 650 431 l 250 431 l 250 0 l 111 0 m 250 556 l 493 556 q 681 715 681 556 q 493 875 681 875 l 250 875 l 250 556 z "},"Q":{"ha":1139,"x_min":49,"x_max":1090,"o":"m 1090 500 q 964 142 1090 283 q 632 -18 838 1 l 632 -132 q 638 -147 632 -142 q 653 -153 643 -153 l 792 -153 l 854 -153 l 854 -264 l 743 -264 q 507 -28 507 -264 l 507 -18 q 175 142 301 1 q 49 500 49 283 q 194 877 49 733 q 569 1021 339 1021 q 945 877 800 1021 q 1090 500 1090 733 m 292 790 q 240 738 292 790 q 188 500 188 685 q 292 210 188 315 q 569 104 396 104 q 844 210 736 104 q 951 500 951 317 q 844 790 951 683 q 569 896 736 896 q 292 790 396 896 z "},"R":{"ha":882,"x_min":111,"x_max":833,"o":"m 833 708 q 772 518 833 590 q 604 425 711 446 l 786 28 l 786 0 l 639 0 l 461 417 l 250 417 l 250 0 l 111 0 l 111 1000 l 514 1000 q 747 925 660 1000 q 833 708 833 850 m 250 875 l 250 542 l 500 542 q 694 708 694 542 q 500 875 694 875 l 250 875 z "},"S":{"ha":882,"x_min":28,"x_max":826,"o":"m 465 1021 q 722 941 622 1021 q 826 715 821 861 l 688 715 q 624 852 682 801 q 458 903 565 903 q 295 858 354 903 q 236 736 236 814 q 250 679 236 704 q 280 640 264 654 q 331 611 296 625 q 385 592 367 597 q 444 576 403 586 l 556 549 q 654 517 614 533 q 736 472 694 501 q 799 397 778 443 q 819 285 819 350 q 715 62 819 144 q 431 -21 611 -21 q 136 76 239 -21 q 28 333 33 172 l 167 333 q 245 161 178 224 q 438 99 313 99 q 617 149 553 99 q 681 278 681 199 q 647 361 681 328 q 581 406 613 394 q 481 433 549 417 q 465 438 471 436 l 354 465 q 263 494 301 478 q 183 540 224 511 q 119 619 142 569 q 97 736 97 669 q 205 947 97 874 q 465 1021 313 1021 z "},"T":{"ha":819,"x_min":21,"x_max":799,"o":"m 21 875 l 21 1000 l 799 1000 l 799 875 l 479 875 l 479 0 l 340 0 l 340 875 l 21 875 z "},"U":{"ha":931,"x_min":111,"x_max":819,"o":"m 111 313 l 111 1000 l 250 1000 l 250 319 q 306 154 250 201 q 465 107 363 107 q 624 154 568 107 q 681 319 681 201 l 681 1000 l 819 1000 l 819 313 q 465 -18 819 -18 q 111 313 111 -18 z "},"V":{"ha":889,"x_min":35,"x_max":854,"o":"m 35 972 l 35 1000 l 176 1000 l 435 138 q 444 132 436 132 q 454 138 453 132 l 713 1000 l 854 1000 l 854 972 l 554 0 l 335 0 l 35 972 z "},"W":{"ha":1319,"x_min":49,"x_max":1271,"o":"m 49 972 l 49 1000 l 188 1000 l 349 143 q 361 132 350 132 q 374 143 372 132 l 535 1000 l 785 1000 l 946 143 q 958 132 947 132 q 971 143 969 132 l 1132 1000 l 1271 1000 l 1271 972 l 1083 0 l 833 0 l 672 860 q 660 868 671 868 q 647 860 649 868 l 486 0 l 236 0 l 49 972 z "},"X":{"ha":910,"x_min":14,"x_max":882,"o":"m 14 0 l 14 28 l 364 507 l 58 972 l 58 1000 l 211 1000 l 447 619 q 458 611 453 611 q 468 617 464 611 l 722 1000 l 882 1000 l 882 971 l 542 500 l 854 28 l 854 0 l 701 0 l 457 389 q 447 396 453 396 q 439 392 442 396 l 174 0 l 14 0 z "},"Y":{"ha":851,"x_min":14,"x_max":844,"o":"m 14 972 l 14 1000 l 161 1000 l 418 486 q 429 479 422 479 q 440 486 436 479 l 697 1000 l 844 1000 l 844 972 l 339 0 l 197 0 l 197 28 l 350 325 l 14 972 z "},"Z":{"ha":819,"x_min":56,"x_max":771,"o":"m 56 0 l 56 111 l 575 875 l 69 875 l 69 1000 l 750 1000 l 750 889 l 231 125 l 771 125 l 771 0 l 56 0 z "}}}
